<svg xmlns="http://www.w3.org/2000/svg" viewBox="0 0 2789 1792.93" id="group-of-happy-business-people"><g data-name="Layer 1"><path fill="#ffcec8" d="M1296.77 824.62s4.47 78.36-50.67 77.54l-3.42 28.28-70.48-8.54 16.69-137.84 104.74-7.28Z"></path><path fill="#ffcec8" d="M1164.12 839.86a17.89 17.89 0 1 0 19.88-15.72 17.94 17.94 0 0 0-19.88 15.72Z"></path><path fill="#ffb1a8" d="M1246.1 902.16s-24.78-3.22-40.66-20c0 0 4.73 22.3 39.32 31.07Z"></path><path fill="#ff7867" d="M1270.11 785.8s-23.36 48.87-84 39.08c0 0-10.26-4.4-17.34 7.48 0 0-51.23-35.49-26.86-107.34 0 0 100-100.1 166.49-6.12a37.83 37.83 0 0 1 3 3.7c12.58 17.1 13.53 40.16 3.18 58.7l-2.12 3.8s22.25 37.06-15 46.7c.01 0-24.13-18.32-27.35-46Z"></path><path fill="#ff7867" d="M1141.89 725s-38.14 19.54-62.71-10c-4.39-5.28-6-18.05-2.82-24.17 2.16-4.23 6.67-8.09 15.7-9.22 0 0-14.46-5.67-12.72-31.49 1.9-28.2 21.77-51.77 48.55-60.79 24-8.1 56-9.48 84.25 20.39 0 0 27.23 31.55 2.38 72.29 0-.01-44.98 18.61-72.63 42.99Z"></path><path fill="#ff7867" d="M1212.08 683.69c14.56-7.76 30.26-10.24 45.74-8.93s30.64 6.48 46.17 12a83.15 83.15 0 0 0-45.56-19.33 64.78 64.78 0 0 0-25.25 2.84c-8.07 2.67-15.65 7.14-21.1 13.42Z"></path><path fill="#ff7867" d="M1215.77 682.42A71.21 71.21 0 0 0 1236.5 660c5-8.93 8.32-19.86 5.79-30.14a144.07 144.07 0 0 1-12.13 26.52c-4.66 8.35-10.33 16.43-14.39 26.04ZM1253.25 824.21c-1.11 1.37-5.79-.5-10.92.07-5.15.26-9.47 2.85-10.79 1.67-1.47-1 2.31-7.51 10.27-8.17s12.73 5.22 11.44 6.43ZM1286.15 829.85c-1.45 1-5.45-2-10.54-2.87-5-1.13-9.89.2-10.84-1.29-1.14-1.39 4.24-6.61 12.08-5.1s10.87 8.41 9.3 9.26Z"></path><path fill="#454545" d="M1276.68 841.14c-.24 3.56-2.26 6.33-4.51 6.17s-3.89-3.16-3.64-6.72 2.26-6.33 4.51-6.17 3.89 3.16 3.64 6.72ZM1246.19 839.07c-.24 3.56-2.27 6.32-4.52 6.17s-3.88-3.16-3.64-6.73 2.26-6.32 4.52-6.16 3.88 3.16 3.64 6.72Z"></path><path fill="#ff7867" d="M1256.74 871.67a1.35 1.35 0 0 1-.23-2.65c3.31-.81 8.34-2.85 8.64-4.66.11-.66-.68-1.58-2.15-2.51-9.75-6.15-6.69-23.1-6.56-23.82a1.35 1.35 0 0 1 2.65.5c0 .16-2.85 15.86 5.35 21 2.54 1.61 3.68 3.36 3.37 5.23-.69 4.21-9 6.43-10.66 6.84a1.44 1.44 0 0 1-.41.07Z"></path><path fill="#fff" d="M1236.87 877c-.3 7.61 5 14.08 12 14.56s13.08-5.23 13.81-12.81Z"></path><path fill="#fff" d="M1261.88 882.27a16 16 0 0 0 .75-3.5l-25.76-1.77a14.94 14.94 0 0 0 .28 3.56Z"></path><path fill="#ffcec8" d="m1485.65 989.85-3.42 26.12-30.03-7.29 4.27-26.15 29.18 7.32z"></path><path fill="#ffcec8" d="M1444.25 921.66c3.17-1.29 6.83.48 8.6 4.19l9.82 15 14.19-49.7c.6-2.18 2.63-3.19 4.48-2.12a4.86 4.86 0 0 1 2 4.87l-5.8 35.72 17.8-37.67a2.85 2.85 0 0 1 4.5-1.19 4.87 4.87 0 0 1 1.3 5.55l-.12.34c.08-.09-16.16 37.58-16.16 37.58l18.14-31.38a2.47 2.47 0 0 1 3.37-1.07 4 4 0 0 1 1.59 5l-14.48 34.58 18.67-21.45c1.13-1.24 2.12-1.57 3.4-.33a3.3 3.3 0 0 1 .67.9 4.71 4.71 0 0 1-.17 4.3l-30.35 65.1-29.19-7.32s-1.46-7.18-2.6-19.32-9.66-41.58-9.66-41.58Z"></path><path fill="#ff7867" d="m1252.07 1328.03 8.87-403.28-97.21-13.39-3.51 416.67h91.85z"></path><path fill="#464646" d="m936.87 1311.78 38.29-49-44.85-104.91 136.89-114.75 12.63 124.92s-67.82 46.79-93.27 160h173.66l3.51-416.67-63.64-11.37a58.88 58.88 0 0 0-44.58 10.23c-43.3 30.54-132.78 105.81-185.64 189.31-6.52 10.29-13.52 34.38-13.52 34.38a104 104 0 0 0 9.65 67.58Z"></path><path fill="#333" d="M1067.2 1044.38a1.26 1.26 0 0 1-.93-.42 1.23 1.23 0 0 1 .11-1.75c.24-.22 24-21.68 21.69-60.11a1.24 1.24 0 0 1 1.16-1.31 1.2 1.2 0 0 1 1.31 1.16c2.38 39.69-22.27 61.9-22.52 62.12a1.24 1.24 0 0 1-.82.31Z"></path><path fill="#fff" d="M1201.06 1326.65a1.21 1.21 0 0 1-.37-.07c-4.53-1.85-5.63-10.41-3.27-25.47 0-.18 2.69-15.69 4.71-20.12-.33-.52-.77-1.1-1.24-1.73-1.75-2.35-4.15-5.57-4.15-8.89 13.37-64.73 11.9-126.54 10.48-186.32-1.14-48-2.32-97.71 4.25-148.26a1 1 0 0 1 1.91.25c-6.56 50.4-5.37 100-4.23 148 1.42 59.89 2.89 121.81-10.51 186.57 0 2.48 2.11 5.29 3.79 7.54.61.82 1.16 1.56 1.54 2.19a.78.78 0 0 1 .09.21 1 1 0 0 1-.21.94c-1.12 2.73-8.32 30.73-4.7 40.52a4.45 4.45 0 0 0 2.27 2.83 1 1 0 0 1 .53 1.25 1 1 0 0 1-.89.56ZM1207 976.27a5.75 5.75 0 1 1-5.75-5.75 5.75 5.75 0 0 1 5.75 5.75Z"></path><path fill="#fff" d="M1204.56 1098.27a5.75 5.75 0 1 1-5.75-5.76 5.75 5.75 0 0 1 5.75 5.76ZM1201.21 1227.33a5.75 5.75 0 1 1-5.75-5.75 5.75 5.75 0 0 1 5.75 5.75Z"></path><path fill="#ffcec8" d="m986.55 1328 8.07-26.86 16.7 10.4a2.09 2.09 0 0 0 2.41-3.4l-16.91-13.51a1.5 1.5 0 0 1-.43-1.76 1.48 1.48 0 0 1 2.06-.7l18.15 10a2.08 2.08 0 0 0 2.41-3.36l-18-16.55a1.66 1.66 0 0 1 1.95-2.66l19.44 11.33a2.7 2.7 0 0 0 3.11-4.38l-17.12-14.55a.28.28 0 0 1 .28-.47l18.54 6.72a2.34 2.34 0 0 0 1.86-4.29l-25.47-13a6.75 6.75 0 0 0-9.27 3.06l-12.25 25.9-13.29-19-20.79 26.69 33.33 30.39Z"></path><path fill="#464646" d="M1363.14 1328c-14.43-84.84-48-137.5-48-137.5l15.79-56.62 53.79 61.21c17.69 20.15 44.18 26.48 67.5 16.14 22.43-9.94 37.93-33.53 40-60.82l5.25-153.2-52.94-18.52-27.53 125.56L1335.08 970a60.72 60.72 0 0 0-26.6-23.6l-47.54-21.69-8.87 403.29Z"></path><path fill="#333" d="M1330.92 1135.15a1.24 1.24 0 0 1-1.21-1.51c.17-.74 16.27-75.39-4.73-165.71a1.24 1.24 0 0 1 2.42-.56c21.13 90.89 4.9 166.06 4.73 166.81a1.24 1.24 0 0 1-1.21.97ZM1412.25 1139.64h-.17a1.23 1.23 0 0 1-1-1.4l4.73-34.15a1.21 1.21 0 0 1 1.4-1.06 1.25 1.25 0 0 1 1.06 1.4l-4.74 34.15a1.23 1.23 0 0 1-1.28 1.06ZM1496.33 1033.13a1.24 1.24 0 0 1-.37-.06l-52.09-16a1.23 1.23 0 0 1-.82-1.55 1.25 1.25 0 0 1 1.55-.82l52.09 16a1.24 1.24 0 0 1 .83 1.55 1.26 1.26 0 0 1-1.19.88ZM1485.05 1019.57a7 7 0 1 1 7-7 7 7 0 0 1-7 7Zm0-11.5a4.51 4.51 0 1 0 4.52 4.51 4.52 4.52 0 0 0-4.52-4.51ZM937.65 1293.36a7 7 0 1 1 7-7 7 7 0 0 1-7 7Zm0-11.5a4.51 4.51 0 1 0 4.51 4.51 4.51 4.51 0 0 0-4.51-4.51ZM924.55 1278.21a1.23 1.23 0 0 1-.81-.3 1.25 1.25 0 0 1-.14-1.75l37.71-43.89a1.24 1.24 0 0 1 1.89 1.62l-37.71 43.89a1.26 1.26 0 0 1-.94.43Z"></path><path fill="#fff" d="M1188.45 953.44a.94.94 0 0 1-.53-.16l-28.07-18.51a1 1 0 0 1 1.06-1.61l27.5 18.14 22.85-17.17a.94.94 0 0 1 1.34.19 1 1 0 0 1-.19 1.34L1189 953.25a1 1 0 0 1-.55.19Z"></path><path fill="#fff" d="M1231.32 956.06a1 1 0 0 1-.72-.32l-18-20.21a1 1 0 0 1 .08-1.35 1 1 0 0 1 1.36.07L1231.6 954l32.29-11.76a1 1 0 0 1 .66 1.8l-32.9 12a1 1 0 0 1-.33.02Z"></path><path fill="#ffcec8" d="m1172.9 912.52 35.53 16.77 35.12-6.91-33.44-15.89-37.21 6.03z"></path><path fill="#ff7867" d="m1260.94 924.75-15.8-14.61-1.59 12.24 10.73 4.52 6.66-2.15zM1174.83 899.58l-1.51 13.92-9.59-2.14 11.1-11.78z"></path><path fill="#333" d="m483.52 1328-.38-.55 14.5-105.76c-61.76 22.46-130.08 101.08-130.08 101.08-1.43 1.75-2.73 3.49-4.1 5.23Z"></path><path fill="#ffd3cf" d="m560.83 912.39 2.14 4.89 9.54 21.79 64.13 13.14 35.99-50.09-7.58-17.86-1.74-4.15-102.48 32.28z"></path><path fill="#545ed7" d="M1002.08 448.22s-40.71-55.22-102-24.8c-.01 0 45.38 65.04 102 24.8Z"></path><path fill="#ffcec8" d="m984.86 420.3-11.73 32.76-45.68-15.22 13.08-32.64 44.33 15.1z"></path><path fill="#545ed7" d="M481.67 1328h276.26c60.66-274.25-78.26-433.63-78.26-433.63l-13.8-8.07 6.78 15.79-36 50.07-64.11-13.1-11.69-26.68L546.31 926l-56.15 258.31s15.91 45.85-8.43 80.48-17.73 56.13-17.73 56.13ZM109.25 711.67s41.18-50.54 94.53-26.21l-43.05 46.8Z"></path><path fill="#ffcec8" d="m126.64 695.45 11.74 32.76 45.67-15.22-13.08-32.64-44.33 15.1z"></path><path fill="#ffcec8" d="M175.52 600.07a11.15 11.15 0 0 0-12.55 7l-11.89 21.16-34.44-60.82a5.3 5.3 0 0 0-7.59-1.83 5.5 5.5 0 0 0-1.91 6.61L125 616.81 87.72 572.1a5.2 5.2 0 0 0-7.4-.64 5.4 5.4 0 0 0-.71 7.36l.29.41c-.16-.1 34.61 44.91 34.61 44.91l-36.27-36.63a4.55 4.55 0 0 0-5.58-.7 4.55 4.55 0 0 0-1.3 6.66l31.25 41.42-34.69-23.79c-2.09-1.36-3.74-1.59-5.46.25a3.93 3.93 0 0 0-.84 1.28 5.23 5.23 0 0 0 1.32 5.48l63.7 77.34 44.36-15.1a210.51 210.51 0 0 0-.58-25.23c-1.18-15.75 5.1-55.05 5.1-55.05Z"></path><path fill="#464646" d="M745.65 1321.86q-.45 3.08-.93 6.17h91.91c27.57-223.63-15.17-355.72-15.17-355.72l180.62-524.09a52.54 52.54 0 0 1-11.66 3.1c-14.68 2.12-29-4.33-39.24-15-21.64-22.57-51.11-12.87-51.11-12.87L692.31 890.89l-12.64 3.51c117.92 191.6 65.98 427.46 65.98 427.46ZM238.84 967.59l229.79 110C451 1130.64 360.52 1244 289.4 1328h93.47a290.8 290.8 0 0 1 37.71-34.61c45.17-34.63 73.32-69.83 73.32-69.83C580 1107.54 546.31 926 546.31 926l-73.94 19.66-190-82.36-78.59-177.84s-16.85-6.55-39.31 17.78-55.22 8.43-55.22 8.43l81.46 204.44a96.84 96.84 0 0 0 48.13 51.48Z"></path><path fill="#fff" d="M667.5 975.16a.92.92 0 0 1-.56-.19l-30.88-22a1 1 0 1 1 1.13-1.58l30.12 21.45 38.27-49.33a1 1 0 0 1 1.36-.18 1 1 0 0 1 .17 1.37l-38.84 50.07a1 1 0 0 1-.77.39Z"></path><path fill="#fff" d="M624.92 986.85a1.18 1.18 0 0 1-.31-.05L551.15 962a1 1 0 0 1 .62-1.84l72.55 24.49 11.38-32.78a1 1 0 0 1 1.24-.6 1 1 0 0 1 .6 1.24l-11.7 33.69a1 1 0 0 1-.92.65Z"></path><path fill="#fff" d="M624.79 1315.94a1 1 0 0 1-.86-.52 1 1 0 0 1 .4-1.31c4.27-2.3 7.13-14.33 9.89-26 3-12.49 5.8-24.42 10.77-28.23-1.4-.46-1.73-1-1.81-1.51a1.26 1.26 0 0 1 .81-1.33 3.06 3.06 0 0 1 1.42-.19c-.87-1.29-1.76-2.68-2.67-4.11-2.29-3.6-4.66-7.33-7-9.65a1 1 0 0 1-.28-.69 1 1 0 0 1 .28-.69c12.44-12.43 16.69-29.42 20.8-45.85 4.67-93.76-2-171.18-20.87-243.46a1 1 0 0 1 .7-1.18 1 1 0 0 1 1.18.69c19 72.48 25.61 150.09 20.9 244.23-4.13 16.58-8.36 33.53-20.67 46.27a71.35 71.35 0 0 1 6.59 9.28 78.29 78.29 0 0 0 4.93 7.2l.07.08a1 1 0 0 1 .1 1.08v.05a1.27 1.27 0 0 1-.3.27l-.2.07a.47.47 0 0 1-.29 0h-.08c-5.75 0-9.28 14.87-12.4 28-3 12.62-5.82 24.53-10.86 27.24a1 1 0 0 1-.55.26Z"></path><path fill="#fff" d="M630.07 1010.68a5.15 5.15 0 1 0 5.15-5.15 5.15 5.15 0 0 0-5.15 5.15Z"></path><circle cx="637.56" cy="1101.46" r="5.15" fill="#fff"></circle><circle cx="634.75" cy="1190.37" r="5.15" fill="#fff"></circle><path fill="#fff" d="M607.14 1301.27a5.15 5.15 0 1 0 5.15-5.15 5.16 5.16 0 0 0-5.15 5.15Z"></path><path fill="#ffb2a9" d="m560.83 912.39 2.14 4.89a60.67 60.67 0 0 0 102.08-33l-1.74-4.15Z"></path><path fill="#ffd3cf" d="M627.45 924.54a60.71 60.71 0 0 0 31.92-79.71l-24.45-57.11-111.63 47.79 24.45 57.11a60.73 60.73 0 0 0 79.71 31.92Z"></path><path fill="#ffd3cf" d="M651.69 849.35c4.77 9.45 8.12 17.37 17.57 12.6s21.43-20.43 16.66-29.88a19.17 19.17 0 1 0-34.23 17.28ZM556.57 888.09c3 10.15 6.06 18.2-4.09 21.23s-29.61-.1-32.64-10.24a19.17 19.17 0 0 1 36.73-11Z"></path><path fill="#464646" d="M674.35 822.37s7.65-17.72 2.21-37.37c-3.15-11.38-14.14-19.16-25.85-17.74l-.52.06s-1.17-38.6-43.75-48.9-58.26 40.95-58.26 40.95a14.76 14.76 0 0 0-17.31-.47s-8.19 4.21-4.68 14.27c0 0-19.75-11.54-39.08 14-23.86 31.66 33.89 99.51 33.89 99.51s2.81-13.57 19.65-12.64l-12.86-27.37s33.45 5.38 39.77-25c0 0 22.93 18.18 42.11 4.45 20.59-14.74 27.12 12.06 43.23 3.75.04-.04 7.91-11.2 21.45-7.5Z"></path><path fill="#ffcec8" d="M1002.45 290.48a5.5 5.5 0 0 1 1.91 6.61l-17.82 44.57 37.24-44.66a5.2 5.2 0 0 1 7.4-.64 5.4 5.4 0 0 1 .71 7.36l-.29.42a4.39 4.39 0 0 1 4.9 0 4.66 4.66 0 0 1 1.69 5.3c-9.45 16.08-19.9 34.28-29.3 50.34l34.69-23.8c2.09-1.36 3.74-1.59 5.46.25a3.93 3.93 0 0 1 .84 1.28 5.23 5.23 0 0 1-1.32 5.48l-63.7 77.34-44.33-15.1a210.35 210.35 0 0 1 .58-25.22c1.15-15.76-5.13-55.06-5.13-55.06a11.15 11.15 0 0 1 12.55 7.05l11.89 21.16 34.44-60.82a5.31 5.31 0 0 1 7.59-1.86Z"></path><path fill="#ff9c91" d="M997 350.07a1.09 1.09 0 0 1-.66-.22 1.08 1.08 0 0 1-.19-1.51l34.62-44.94a1.07 1.07 0 1 1 1.7 1.31l-34.62 44.94a1.06 1.06 0 0 1-.85.42Z"></path><path fill="#464646" d="M579.62 871.88c1.07 2.63 3.52 4.12 5.47 3.33s2.67-3.57 1.6-6.21-3.52-4.12-5.48-3.33-2.66 3.57-1.59 6.21Z"></path><path fill="#fff" d="m588.08 882.88-7.34 3a15.22 15.22 0 0 1-19.8-8.37l-4.5-11.07L592 852l4.5 11.07a15.21 15.21 0 0 1-6.22 18.73 16 16 0 0 1-2.2 1.08Zm-28.72-15.23 3.65 9a13 13 0 0 0 16.89 7.13l7.34-3a13 13 0 0 0 7.13-16.89l-3.65-9Z"></path><path fill="#464646" d="M615.09 857.47c1.07 2.63 3.52 4.13 5.48 3.33s2.66-3.57 1.59-6.2-3.52-4.13-5.47-3.34-2.69 3.57-1.6 6.21Z"></path><path fill="#fff" d="m633 864.66-7.34 3a15.21 15.21 0 0 1-19.8-8.37l-4.5-11.07 35.51-14.42 4.5 11.07a15.19 15.19 0 0 1-6.22 18.73 16 16 0 0 1-2.15 1.06Zm-28.72-15.23 3.65 9a13 13 0 0 0 16.89 7.13l7.34-3a13 13 0 0 0 7.13-16.89l-3.65-9ZM632.41 887.28a18.57 18.57 0 0 1-34.65 13.34Z"></path><path fill="#ffcec8" d="m592.71 849.22 24.04 25.53-12.69 9.46-11.35-34.99z"></path><path fill="#ff7867" d="m604.64 885.17.09-.06 12.68-9.46a1.11 1.11 0 0 0 .45-.8 1.09 1.09 0 0 0-.3-.86l-24-25.54a1.12 1.12 0 0 0-1.63 1.53l23.18 24.63-11.68 8.7a1.12 1.12 0 0 0 1.25 1.86Z"></path><path fill="#464646" d="M565.78 854.77a2.41 2.41 0 0 0 3.13.91l11.72-5.88a3.5 3.5 0 0 0 1.19-4.8 3.49 3.49 0 0 0-5.07-1l-10.33 7.62a2.4 2.4 0 0 0-.64 3.16ZM620.83 833.17a2.39 2.39 0 0 1-1.43 2.92l-12.23 4.73a3.49 3.49 0 0 1-4.35-2.34 3.51 3.51 0 0 1 2.66-4.44l12.58-2.53a2.38 2.38 0 0 1 2.77 1.66Z"></path><path fill="#ff9d5a" d="m559.45 868.59 76.79-31.18a2 2 0 0 0 1.12-2.64 2 2 0 0 0-2.64-1.11l-76.79 31.18a2 2 0 0 0-1.12 2.64 2 2 0 0 0 2.64 1.11Z"></path><path fill="#ffd3cf" d="M1607.19 820.62s-35.84 97.26 24.64 119.8l-6.07 70.68 81.52 5.25L1726 867.22s-46.76-148.61-118.81-46.6Z"></path><path fill="#545ed3" d="m1625.76 1011.1-78.91 298.21s32.11-42.13 113-11.37 106.56-32.32 106.56-32.32l-41-90.64-18.18-158.63-40.68-10.15Z"></path><path fill="#545ed3" d="m1667.41 1005.34 12.21 37.38 28.25-8.93-.59-17.44 3.28-33.83-43.15 22.82zM1628.79 976.06l38.62 29.28-21.15 38.01-27.56-10.87 7.06-21.38 3.03-35.04z"></path><path fill="#ff7867" d="M1823 1328c-19.11-22-47.29-53.57-56.58-62.41 0 0-36 57.38-125.36 24.79a102.17 102.17 0 0 0-25.27-6.12c-18.62-1.76-47.69.42-69 25 0 0-1.06 6.48-2.09 18.72ZM1441.26 549.29s40.6-40.27 73.83-15.44l-42.94 39.08s-23.75 11.41-30.89-23.64ZM2059.72 824.61s4.32-10-11.32-31.91c-12.37-19.42-25.56-25.68-46.94-22.15l9.24 53.34s16.7 28.11 49.02.72Z"></path><path fill="#ffcec8" d="m1462.8 541.21 4.71 25.93 29.64-8.77-5.56-25.92-28.79 8.76zM1500.78 471.06c-3.23-1.14-6.8.81-8.38 4.61l-9.07 15.5-16.63-48.94c-.71-2.15-2.79-3.06-4.58-1.9a4.89 4.89 0 0 0-1.71 5l7.56 35.38-19.64-36.74a2.85 2.85 0 0 0-4.56-1 4.89 4.89 0 0 0-1 5.61l.14.33c-.09-.09 18 36.73 18 36.73l-19.68-30.47a2.47 2.47 0 0 0-3.42-.9 4 4 0 0 0-1.34 5l16.18 33.82-19.71-20.5c-1.2-1.18-2.2-1.46-3.42-.16a3 3 0 0 0-.62.93 4.7 4.7 0 0 0 .38 4.29l33.54 63.51 28.79-8.76s1.1-7.23 1.63-19.42 7.54-41.92 7.54-41.92ZM2041.82 808.94l-17.4 19.8-20.88-22.79 18.12-19.35 20.16 22.34z"></path><path fill="#ffcec8" d="M2045.41 729.25c3.35.69 5.41 4.2 4.81 8.27l-.21 18 39.47-33.38c1.71-1.48 4-1.18 4.9.74a4.88 4.88 0 0 1-1.09 5.13l-24.72 26.43 35.76-21.44a2.86 2.86 0 0 1 4.41 1.52 4.91 4.91 0 0 1-2 5.34l-.3.21c.12 0-34.35 22.21-34.35 22.21l32.57-16a2.46 2.46 0 0 1 3.39 1 4 4 0 0 1-1.45 5L2075.3 773l27.46-7.42c1.63-.4 2.64-.12 3 1.62a3.06 3.06 0 0 1 .05 1.12 4.69 4.69 0 0 1-2.54 3.48l-61.46 37.15-20.16-22.34s2.78-6.77 8.6-17.48 15.16-39.88 15.16-39.88Z"></path><path fill="#ff9d5a" d="M1607.19 820.62s-12.83-19.68-.28-43.57c0 0 19.51-42.57 80.2-26s46.21 70.1 46.21 70.1 18.88-24.57 55.25-8 29.3 64.1 29.3 64.1-9.24 32.12 48.36 34.13c0 0 31.63-2.5 40.68 22.15 0 0 23.17 33.25-10.55 69.91-23.29 25.33 2.2 44.63 20.2 54.14 12.82 6.77 21.81 19.51 22.67 34s-4.65 29.91-30 34.88c0 0 44.19 58.6-2.49 113-33.67 39.2-74.14 42.81-74.14 42.81l-105.7-95.45-16.29-204.22 11.48-92.6s-30.56-10.92-35.83-47.45c-1.57-10.84-6.65-21.09-15.71-27.23-5.44-3.69-14.69-6.2-25.88-5.87a79.37 79.37 0 0 0-37.48 11.17Z"></path><path fill="#464646" d="M1524.15 1065.22c6.23 27.85 19.75 53.55 19.75 53.55s-28.21 121.4-56.38 209.26h72.72c23.42-94.59 62.5-262.44 68.55-352l3-35.64s-31.24-9.26-34.79-52.18a94.14 94.14 0 0 1 1.88-26.25l8.27-41.37-92.1-286.77s-18.3-6.58-46.13 18.37c-7.26 6.51-18.68 6.6-25.47-.39a32.89 32.89 0 0 1-2.23-2.54l112.08 471.29s-35.39 16.81-29.15 44.67ZM1797.86 1103.37l261.86-278.76c-24.85-14.11-28.48-27.76-28.48-27.76-15.52-43-37-22.68-37-22.68l-254.61 236.42-.51.09 58.61 93Z"></path><path fill="#464646" d="M1801 1328h109.47c-71.15-48.71-157.88-129.88-157.88-129.88-4.86-26.86 44.39-94.43 47.74-99l-25.44-106.94-64.32-9.7c-16.41 48.39-13.88 130.78 4.57 221.53 8.14 40.12 53.55 93.15 85.86 123.99Z"></path><path fill="#fff" d="M1645.22 1288.91a1 1 0 0 1-.93-1c0-1.39 1.35-27.32 2.61-52.4 1.17-23.33 2.38-47.47 2.43-48.78.09-2.59 7.65-15.57 10.22-19.91l-15-7.31a.92.92 0 0 1-.52-.69.94.94 0 0 1 .24-.83l12.18-13-12.07-5.33a1 1 0 0 1-.57-1l22.69-133.47a1 1 0 0 1 .91-.81 1 1 0 0 1 1 .72l8 30 30.7-13.95a1 1 0 1 1 .79 1.75l-31.73 14.42a.93.93 0 0 1-.8 0 1 1 0 0 1-.52-.62l-7.2-26.83-21.82 128.4 12.62 5.57a1 1 0 0 1 .32 1.53l-12.21 13 14.77 7.2a1 1 0 0 1 .5.59 1 1 0 0 1-.1.77c-4.31 7.24-10.42 18.2-10.48 19.89 0 1.32-1.21 24.39-2.43 48.81-1.26 25.07-2.56 51-2.61 52.37a1 1 0 0 1-.99.91Z"></path><path fill="#ffd3cf" d="M1707.66 903.68c-1 11.53-2.43 20.82 9.1 21.81s31.65-6.69 32.64-18.22a20.95 20.95 0 0 0-41.74-3.59Z"></path><path fill="#fff" d="M1648.39 1033.92a1 1 0 0 1-.58-.2l-28.24-21.55a1 1 0 1 1 1.17-1.52l27.43 20.93 17.64-25.92a1 1 0 0 1 1.58 1.08l-18.2 26.76a1 1 0 0 1-.64.41Z"></path><path fill="#ffb2a9" d="M1631.83 940.42s33.37 5.58 59.17-11.49c0 0-6.15 23.21-60.21 25Z"></path><path fill="#ff9d5a" d="M1661.23 847.68c.69 1.62 5.67 1.1 10.41 3 4.86 1.65 8.28 5.3 9.86 4.54 1.68-.59-.16-7.81-7.59-10.6s-13.57 1.52-12.68 3.06ZM1617.13 847.9c1.1 1.38 5.76-.46 10.85.13 5.12.28 9.4 2.88 10.72 1.72s-2.26-7.48-10.17-8.17-12.67 5.08-11.4 6.32Z"></path><path fill="#454545" d="M1621.5 871.54c-.74 3.46.44 6.65 2.64 7.12s4.57-2 5.31-5.43-.44-6.66-2.64-7.13-4.57 1.97-5.31 5.44ZM1662.63 879.48c-.74 3.47.44 6.66 2.63 7.13s4.57-2 5.31-5.44-.44-6.66-2.64-7.12-4.57 1.95-5.3 5.43Z"></path><path fill="#ff7867" d="M1638.78 905.4a1.19 1.19 0 0 1-.44-.09c-.8-.31-7.81-3.15-8-7.21-.09-2 1.32-3.69 4.21-5.15 9.58-4.82 9.71-23.94 9.71-24.13a1.23 1.23 0 0 1 1.22-1.23 1.23 1.23 0 0 1 1.22 1.23c0 .85-.14 20.82-11 26.31-1.1.55-2.93 1.66-2.87 2.85.08 1.79 3.82 4 6.45 5.06a1.22 1.22 0 0 1-.45 2.36Z"></path><path fill="#fff" d="M1671 901.85a22.06 22.06 0 0 1-21-28.64 22.07 22.07 0 1 1 21 28.64Zm0-42.23a20.21 20.21 0 0 0-19.2 14.16 20.14 20.14 0 0 0 38.46 12 20.14 20.14 0 0 0-13.26-25.23 20.17 20.17 0 0 0-6.07-.93Zm-20.12 13.87ZM1619.63 894.69a22.36 22.36 0 0 1-6.6-1 22.08 22.08 0 1 1 16.82-1.53 21.88 21.88 0 0 1-10.22 2.53Zm0-42.23a20.15 20.15 0 0 0-6 39.38 20.14 20.14 0 1 0 6-39.38Z"></path><path fill="#fff" d="M1649.86 880.29h-.16l-9.77-1.68a1 1 0 0 1-.78-1.11 1 1 0 0 1 1.11-.78l9.76 1.68a1 1 0 0 1-.16 1.91ZM1656.17 914a15.73 15.73 0 0 1-31.32-2.74Z"></path><path fill="#ff9d5a" d="M1649.21 808.75s3.15 18.93-44.48 25.3c0 0-13.39-30.51 1.47-55.14Z"></path><path fill="#ffd3cf" d="M2050.42 962.13a9.31 9.31 0 0 0-10.4 6l-9.7 17.77-29.32-50.38a4.42 4.42 0 0 0-6.34-1.45 4.58 4.58 0 0 0-1.53 5.53l15.3 37-31.49-36.91a4.34 4.34 0 0 0-6.18-.46 4.49 4.49 0 0 0-.52 6.14l.24.35c-.13-.09 29.31 37.1 29.31 37.1l-30.61-30.18a3.81 3.81 0 0 0-4.66-.54 3.81 3.81 0 0 0-1 5.57l26.48 34.22-29.2-19.49c-1.76-1.12-3.13-1.29-4.55.26a3.36 3.36 0 0 0-.69 1.07 4.34 4.34 0 0 0 1.16 4.56l53.88 63.86 36.82-13a175.27 175.27 0 0 0-.74-21c-1.11-13.15 3.74-46.02 3.74-46.02Z"></path><path fill="#ffcec8" d="M2267.49 640s-25.67 123.44 48 133.75l.11 38.43 45.81 31.82 62.37-40.09 14.36 4.86-20.68-152.11Z"></path><path fill="#464646" d="M2267.49 640s19.31 34.28 62.28 11.83c0 0 15.26-6.05 21.51 11.83 2.2 6.3 5.25 13.64 11.26 17.25a8.58 8.58 0 0 0 7.17 1c1.67-.6 3-1.85 4.49-2.83 7.07-4.71 17.44-2.46 22.93 4 11.33 13.41 2.41 34.18-15.08 35.08a56 56 0 0 1-9.26-.28s2.6 32.61 56.65 26.86l-9.06-100.94s1.36-25.47-21-14.52l1.41-17s-22.18 22.06-63.14 3.21-62.73-32.89-80.37-10.8-4.21 45.27 7.67 49.41Z"></path><path fill="#ffb6ad" d="M2315.46 773.77s43.59.56 65-22.69c0 0-10.68 31.11-65 39.56Z"></path><path fill="#464646" d="M2333.87 700.91c.44 2.78-.88 5.31-2.94 5.63s-4.1-1.67-4.53-4.46.88-5.31 2.94-5.63 4.09 1.67 4.53 4.46Z"></path><path fill="#fff" d="M2329.93 714.77a15.08 15.08 0 0 1-14.87-12.77l-1.84-11.71 37.56-5.91 1.84 11.71a15.07 15.07 0 0 1-12.55 17.25l-7.77 1.22a15.76 15.76 0 0 1-2.37.21Zm-14.17-22.6 1.5 9.52a12.86 12.86 0 0 0 14.7 10.7l7.76-1.22a12.86 12.86 0 0 0 10.71-14.7l-1.5-9.51Z"></path><path fill="#464646" d="M2296.35 706.81c.44 2.78-.88 5.31-2.95 5.63s-4.09-1.67-4.53-4.46.88-5.31 3-5.63 4.04 1.65 4.48 4.46Z"></path><path fill="#fff" d="M2282.47 722.24a15.1 15.1 0 0 1-14.87-12.75l-1.84-11.71 37.56-5.9 1.85 11.71a15.1 15.1 0 0 1-12.56 17.24l-7.76 1.22a16 16 0 0 1-2.38.19Zm-14.16-22.61 1.49 9.52a12.86 12.86 0 0 0 14.7 10.7l7.76-1.22a12.87 12.87 0 0 0 10.71-14.7l-1.5-9.51ZM2310.56 734.93a18.43 18.43 0 0 0 36.28-6.38Z"></path><path fill="#ffcec8" d="m2307.97 687.55-7.37 34 15.62 1.55-8.25-35.55z"></path><path fill="#ff7867" d="M2316.22 724.21h-.11l-15.62-1.55a1.15 1.15 0 0 1-.79-.45 1.17 1.17 0 0 1-.19-.89l7.37-34a1.12 1.12 0 0 1 2.18.48l-7.06 32.77 14.38 1.42a1.11 1.11 0 0 1-.11 2.22Z"></path><path fill="#464646" d="M2337 676a2.39 2.39 0 0 1-2.2 2.37l-13 1a3.46 3.46 0 0 1-3.46-3.46 3.47 3.47 0 0 1 3.79-3.46l12.68 1.19A2.39 2.39 0 0 1 2337 676ZM2283.58 688.52a2.38 2.38 0 0 0 2.71 1.76l12.81-2.28a3.47 3.47 0 0 0 2.51-4.22 3.48 3.48 0 0 0-4.53-2.41l-12 4.29a2.37 2.37 0 0 0-1.5 2.82Z"></path><path fill="#ffa680" d="m2349.33 687.8-81.22 12.77a2 2 0 0 1-2.3-1.67 2 2 0 0 1 1.68-2.3l81.22-12.77a2 2 0 0 1 2.3 1.68 2 2 0 0 1-1.68 2.29Z"></path><path fill="#ff7867" d="M2345.73 1259.54a34.82 34.82 0 0 1 .93 9.08v.07l6.09 59.34h135.88l-23.12-233.6-.11-1.11-.25-2.57-.12-1.14-.2-2-.17-1.71-.14-1.44-.1-1v-.1l-.15-1.52-.08-.77-.17-1.82-.06-.55-.35-3.55-.06-.62-27.72-280-72.08 43.76-48.28-31.11.13-12.65-16.17 13.4 45.76 446.31Z"></path><path fill="#464646" d="m2142.81 1131.29-75-123.91-83.21 43 85.06 158.58s6.8 12.31 7.37 13.55c22.54 49.34 83.1 53.4 123.32 17 1.23-1.11 2.48-2.32 3.72-3.5l-60-105.92Z"></path><path fill="#464646" d="M2204.42 1328h148.45c-9-94.14-50.22-520.79-53.45-520.13-111.73 22.76-180.44 87-202.82 179.15-12.53 51.59-11.11 196.68-10.9 214.06l118.24 35.61c.35-20.08-2.41-48.33-.77-76.15Z"></path><path fill="#333" d="M2203.17 1213a1.11 1.11 0 0 1-1.11-1.09l-5.87-254.52a1.11 1.11 0 0 1 2.22 0l5.87 254.52a1.11 1.11 0 0 1-1.08 1.14Z"></path><path fill="#464646" d="M2656 1328q.6-21.51 1.19-43a76.4 76.4 0 0 0 44.73-15.3c.41-.3.81-.61 1.2-.92a65.4 65.4 0 0 0 24.25-58L2710.6 1046a351.41 351.41 0 0 0-9-46.38c-21.87-81.52-72.74-145.91-153.41-170.71L2450.73 799l-14.91-4.45 52.43 533.45Z"></path><path fill="#fff" d="M2404.81 1323.08a1.39 1.39 0 0 1-1.37-1.18c-.58-3.91-.81-7.63-1-11.23-.12-2.12-.25-4.32-.46-6.55-.55-6.89-1.25-13.9-1.93-20.67s-1.38-13.81-1.93-20.72c-.14-2.12-.25-4.26-.35-6.33a137.18 137.18 0 0 0-1.84-18.9c-.85-5.1-3.42-9.17-6.14-13.49-.64-1-1.3-2.06-1.94-3.12a7.82 7.82 0 0 1-1.28-6.6 24.52 24.52 0 0 1 2.63-5.6 21.33 21.33 0 0 0 2.35-4.92c.76-3-2.09-4.75-5.9-6.65a10.27 10.27 0 0 1-5.56-6.2 8.35 8.35 0 0 1 1.14-6.81 1.18 1.18 0 0 1 .19-.25 4.17 4.17 0 0 0 .84-1.89 8.79 8.79 0 0 1 .56-1.61 1.07 1.07 0 0 1 .19-.28c3.69-4.31 6-7.85 7.36-11.44-5.46-68.23-11.44-137.4-17.22-204.29-3.56-41.19-7.25-83.78-10.77-125.75a1.39 1.39 0 1 1 2.77-.24c3.52 42 7.21 84.56 10.77 125.75 5.79 67 11.78 136.29 17.25 204.63a1.32 1.32 0 0 1-.08.59c-1.49 4-3.91 7.8-7.85 12.41a8.53 8.53 0 0 0-.3 1 6.7 6.7 0 0 1-1.43 3 5.55 5.55 0 0 0-.74 4.47 7.6 7.6 0 0 0 4.12 4.46c3.47 1.74 8.72 4.36 7.35 9.86a24.52 24.52 0 0 1-2.63 5.6 21.53 21.53 0 0 0-2.35 4.92 5 5 0 0 0 .92 4.37c.62 1 1.28 2.09 1.92 3.1 2.75 4.35 5.59 8.86 6.53 14.49a140.09 140.09 0 0 1 1.88 19.24c.1 2.06.2 4.19.34 6.27.55 6.87 1.25 13.87 1.93 20.65s1.38 13.8 1.93 20.7c.21 2.26.34 4.48.47 6.62.22 3.71.42 7.21 1 11a1.39 1.39 0 0 1-1.17 1.58Z"></path><path fill="#fff" d="M2332 858.17a1.38 1.38 0 0 1-1.12-.57l-32.14-44.12a1.39 1.39 0 0 1 2.25-1.64l31.4 43.11 30.62-17.68a1.43 1.43 0 0 1 1.39 0l25.08 14.49 47.8-34.78a1.39 1.39 0 0 1 1.64 2.25l-48.53 35.31a1.42 1.42 0 0 1-1.52.08l-25.17-14.54-31 17.91a1.46 1.46 0 0 1-.7.18Z"></path><circle cx="2354.63" cy="881.94" r="6.18" fill="#fff"></circle><circle cx="2364.92" cy="1018.91" r="6.18" fill="#fff"></circle><path fill="#fff" d="M2381.39 1149a6.19 6.19 0 1 1-6.18-6.19 6.18 6.18 0 0 1 6.18 6.19ZM2395.84 1301.57a6.19 6.19 0 1 1-6.19-6.19 6.19 6.19 0 0 1 6.19 6.19Z"></path><path fill="#333" d="M2002.18 1065.46a7.3 7.3 0 1 1 10.32.07 7.31 7.31 0 0 1-10.32-.07Zm8.81-8.68a5.07 5.07 0 1 0 0 7.17 5.06 5.06 0 0 0 .01-7.17ZM2005.42 1091.58a1.26 1.26 0 0 1-.19-.25 1.12 1.12 0 0 1 .45-1.51l71.62-38.82a1.11 1.11 0 0 1 1.06 2l-71.62 38.83a1.11 1.11 0 0 1-1.32-.25Z"></path><path fill="#464646" d="m2554.56 1298.99-137.03 18.59-15.33-94.68 161.29-32.17-8.93 108.26z"></path><path fill="#333" d="M2441.85 1216.1a1.12 1.12 0 0 1-1.09-.89 1.11 1.11 0 0 1 .88-1.31l155.15-31L2556 938.27a1.11 1.11 0 0 1 2.19-.37l41 245.75a1.1 1.1 0 0 1-.88 1.27l-156.21 31.16ZM2418.5 1318.65a1.11 1.11 0 0 1-.15-2.21l238.65-32.55a1.12 1.12 0 0 1 .3 2.21l-238.68 32.54ZM2432.5 1301.74a7.41 7.41 0 0 1-1.54-.17 7.29 7.29 0 0 1-2.41-13.26 7.17 7.17 0 0 1 5.49-1 7.3 7.3 0 0 1-1.54 14.43Zm0-12.38a5.08 5.08 0 0 0-1.06 10 5.08 5.08 0 0 0 6-3.89 5.08 5.08 0 0 0-3.89-6 5 5 0 0 0-1.06-.11Z"></path><path fill="#333" d="M2460.18 1313a1.12 1.12 0 0 1-1.1-.94l-13.32-83.94a1.11 1.11 0 1 1 2.2-.35l13.32 83.94a1.12 1.12 0 0 1-.92 1.28Z"></path><path fill="#ffcec8" d="m2311.33 1310.44 8.45-10.92-.67 25a4.36 4.36 0 0 0 1.67 3.49h5.47a4.34 4.34 0 0 0 1.57-2.46l3.47-16.36 14.66-19.36-13.16 18.17.75 20.06h8.7l3.67-15.2 10.42-13.9a.78.78 0 0 1 .9-.27.79.79 0 0 1 .41 1.13l-7.67 13.53-3.18 14.71h10.88l5.36-9.67 6.83-11.39 10.67-5.93c16.71 6.17 25.51-3.52 25.51-3.52l8.41 1.26-8.71-54.47a150.37 150.37 0 0 0-16.29 5.06l-45.28 16.42-22.6 13.56a14 14 0 0 0-5.4 5.94l-10.4 21.72a3.29 3.29 0 0 0 5.56 3.43Z"></path><path fill="#ff7867" d="M2320.63 1300.26h-.07a.56.56 0 0 1-.48-.63l.18-1.37a8.68 8.68 0 0 1 2.64-5.16l16.79-15.8a.56.56 0 0 1 .79 0 .54.54 0 0 1 0 .78l-16.78 15.81a7.55 7.55 0 0 0-2.31 4.49l-.18 1.38a.54.54 0 0 1-.58.5ZM2333.07 1308.71a.43.43 0 0 1-.19 0 .54.54 0 0 1-.33-.71l.53-1.44a.38.38 0 0 1 .09-.15l12.41-15.64a.56.56 0 1 1 .87.69l-12.36 15.54-.5 1.35a.55.55 0 0 1-.52.36Z"></path><path fill="#333" d="M2170.36 1183.42a1.31 1.31 0 0 1-1.13-.66L2091 1047.85a1.31 1.31 0 0 1 2.27-1.31l78.27 134.91a1.32 1.32 0 0 1-.47 1.79 1.34 1.34 0 0 1-.71.18Z"></path></g></svg>