<svg xmlns="http://www.w3.org/2000/svg" viewBox="0 0 487.16 421" id="page-lost"><g data-name="Layer 2"><g data-name="Layer 1"><path fill="#ffcd52" d="M356.59 178.83h11.11v4.73a5.56 5.56 0 0 1-5.56 5.56 5.56 5.56 0 0 1-5.56-5.56v-4.73h.01Z"></path><path fill="none" stroke="#f46534" stroke-linecap="round" stroke-linejoin="round" d="M375.3 205.57h-22.72l-8.42-31.39 37.13-3.07-5.99 34.46z"></path><path fill="none" stroke="#f46534" stroke-linecap="round" stroke-linejoin="round" d="m352.58 205.57 3.35-32.36 6.8 32.36 5.45-33.38 7.12 33.38h-17.56"></path><path fill="#ffcd52" d="M181.36 361.57h17.7v9.24a7.15 7.15 0 0 1-7.15 7.15h-3.4a7.15 7.15 0 0 1-7.15-7.15v-9.24Z"></path><path fill="none" stroke="#f46534" stroke-linecap="round" stroke-linejoin="round" stroke-width="2" d="M213.66 405.26h-38.49l-14.27-44.64 62.92-4.37-10.16 49.01z"></path><path fill="none" stroke="#f46534" stroke-linecap="round" stroke-linejoin="round" stroke-width="2" d="m175.17 405.26 5.67-46.02 11.52 46.02 9.25-47.46 12.05 47.46h-29.75"></path><path fill="#ffcd52" d="M218.43 421h-48.06v-20.69a119 119 0 0 0 48.06 0Z"></path><path fill="#f46534" d="M175.66 401.28a29.63 29.63 0 0 1 .78 4.8c.15 1.6.23 3.2.22 4.8s-.07 3.2-.21 4.8a29.66 29.66 0 0 1-.79 4.8 30.76 30.76 0 0 1-.78-4.8c-.14-1.6-.22-3.2-.21-4.8s.07-3.2.22-4.8a29.6 29.6 0 0 1 .77-4.8ZM180.63 421a29.13 29.13 0 0 1-.77-4.76c-.15-1.59-.23-3.17-.23-4.76s.08-3.17.22-4.76a30.27 30.27 0 0 1 .78-4.76 28.12 28.12 0 0 1 .78 4.76 51.6 51.6 0 0 1 0 9.52 29.16 29.16 0 0 1-.78 4.76ZM185.59 421a27.94 27.94 0 0 1-.78-4.64 49.15 49.15 0 0 1 0-9.29 26.77 26.77 0 0 1 .78-4.64 28.83 28.83 0 0 1 .78 4.64c.14 1.55.22 3.1.22 4.64s-.08 3.1-.23 4.65a27.9 27.9 0 0 1-.77 4.64ZM190 421a28.12 28.12 0 0 1-.78-4.58c-.14-1.53-.22-3.05-.22-4.58s.07-3.06.22-4.58a26.91 26.91 0 0 1 .78-4.58 26.91 26.91 0 0 1 .78 4.58 43.75 43.75 0 0 1 .22 4.58c0 1.53-.08 3.05-.22 4.58A28.12 28.12 0 0 1 190 421ZM194.4 421a27.88 27.88 0 0 1-.78-4.56c-.14-1.52-.22-3-.22-4.56s.08-3 .22-4.56a26.85 26.85 0 0 1 .78-4.56 26.85 26.85 0 0 1 .78 4.56 43.5 43.5 0 0 1 .22 4.56c0 1.52-.08 3-.22 4.56a27.88 27.88 0 0 1-.78 4.56ZM199.06 421a27.25 27.25 0 0 1-.78-4.58 44.07 44.07 0 0 1-.22-4.59c0-1.53.07-3.05.21-4.58a27.22 27.22 0 0 1 .79-4.59 28.24 28.24 0 0 1 .78 4.59c.14 1.53.22 3.05.21 4.58a44.07 44.07 0 0 1-.22 4.59 27.22 27.22 0 0 1-.77 4.58ZM204 421a27.82 27.82 0 0 1-.78-4.66 49.36 49.36 0 0 1 0-9.31 26.89 26.89 0 0 1 .78-4.65 29 29 0 0 1 .78 4.65c.14 1.56.22 3.11.22 4.66s-.08 3.1-.23 4.65A27.79 27.79 0 0 1 204 421ZM209 421a29.48 29.48 0 0 1-.77-4.79c-.15-1.59-.23-3.19-.23-4.78s.08-3.19.22-4.79a30.71 30.71 0 0 1 .78-4.78 28.51 28.51 0 0 1 .78 4.78c.15 1.6.23 3.19.22 4.79s-.07 3.19-.22 4.78A29.51 29.51 0 0 1 209 421ZM214.28 401.09a33 33 0 0 1 .78 5c.14 1.66.22 3.31.22 5s-.07 3.32-.22 5a31.5 31.5 0 0 1-.78 5 31.5 31.5 0 0 1-.78-5c-.14-1.66-.22-3.32-.22-5s.08-3.31.22-5a33 33 0 0 1 .78-5Z"></path><path fill="#f46534" d="M170.37 410.65c4-.41 8-.63 12-.77s8-.21 12-.23 8 .06 12 .22 8 .37 12 .78c-4 .42-8 .64-12 .78s-8 .2-12 .22-8-.06-12-.22-8-.36-12-.78Z"></path><path fill="#e5e5e5" d="M193.17 364.4q-4.26-89.32-7.51-178.69-1.28-35.16-2.4-70.29c1.09 0 2.18-.07 3.28-.07 52.35 0 94.81 47.84 94.81 106.84 0 29.82-10.86 56.77-28.34 76.16-26.15 29.77-29.2 57.9-29.2 57.9-9.44 5.68-20.47 7.75-30.64 8.15Z"></path><path fill="#008ef8" d="M186.54 115.35H183.26q1.13 35.14 2.4 70.29 3.26 89.37 7.51 178.69a112.51 112.51 0 0 1-32.27-3.78c-7.58-31.46-33.61-55-33.61-55-21.71-19.57-35.61-49.65-35.61-83.4 0-57.77 40.69-104.83 91.54-106.77h1.08c.77-.02 1.5-.03 2.24-.03Z"></path><path fill="#e5e5e5" d="M178.65 363.88c.84-10.64-3-25.67-7.47-39.11a138.42 138.42 0 0 0-24.8-43.77c-36.63-44.45-28.65-112.8-24.33-137.11-18.66 19.51-30.33 47.38-30.33 78.32 0 33.75 13.9 63.83 35.61 83.4s26 23.57 33.61 55a108 108 0 0 0 17.71 3.27Z"></path><path fill="#008ef8" d="M208.51 362.38c-2.74-10.51.19-27.47 4.1-42.56a138.5 138.5 0 0 1 21.63-45.44c30.38-42.68 22.54-102.49 16.34-131 18.91 19.52 30.77 47.58 30.77 78.77 0 29.82-10.86 56.77-28.34 76.16-26.15 29.77-29.2 57.9-29.2 57.9a54.08 54.08 0 0 1-15.3 6.17Z"></path><path fill="#686868" d="M92.67 207.1a14.92 14.92 0 0 0 6.59 3.65 13.52 13.52 0 0 0 7.46-.26l1.77-.66 1.66-.92c.27-.16.56-.29.81-.47l.76-.57 1.51-1.14c.92-.87 1.84-1.73 2.72-2.64l2.45-2.9a.28.28 0 0 1 .39 0 42.73 42.73 0 0 0 15.38 10.43 40.54 40.54 0 0 0 18.33 2.68 47.68 47.68 0 0 0 9.15-1.82c1.47-.51 3-1 4.4-1.6.72-.3 1.45-.58 2.15-.91l2.11-1a78.31 78.31 0 0 0 15.48-10.53.5.5 0 0 1 .65 0 71.37 71.37 0 0 0 15.8 10.16 60.41 60.41 0 0 0 18 5.47 48.2 48.2 0 0 0 18.68-1 52.78 52.78 0 0 0 17-8.05.26.26 0 0 1 .3 0 32.11 32.11 0 0 0 5.59 3.33 28.16 28.16 0 0 0 6.18 2.1 19.23 19.23 0 0 0 6.51.17 16.29 16.29 0 0 0 6-2.41 16.39 16.39 0 0 1-6 2.53 19.58 19.58 0 0 1-6.57 0 28.82 28.82 0 0 1-6.29-2 33.44 33.44 0 0 1-5.75-3.28h.3a53.31 53.31 0 0 1-17.08 8.33 48.2 48.2 0 0 1-19 1.23 61.55 61.55 0 0 1-18.24-5.49 72.24 72.24 0 0 1-16.08-10.27h.65a77.67 77.67 0 0 1-15.7 10.62l-2.14 1c-.72.33-1.46.61-2.19.92-1.45.64-3 1.09-4.48 1.61a49.54 49.54 0 0 1-9.35 1.82 41.45 41.45 0 0 1-9.51-.32 40.41 40.41 0 0 1-9.17-2.55 43 43 0 0 1-15.51-10.77h.42l-2.51 2.91c-.91.91-1.87 1.77-2.81 2.63l-1.49 1.06-.78.56c-.27.19-.57.31-.84.47l-1.71.9-1.82.64a13.76 13.76 0 0 1-7.58.13 15 15 0 0 1-6.6-3.79ZM95.7 252.9a26.37 26.37 0 0 0 8.25 3.4 22 22 0 0 0 8.86.21 20.72 20.72 0 0 0 8.09-3.51 29.54 29.54 0 0 0 6.34-6.19.29.29 0 0 1 .42-.05l.06.05a25 25 0 0 0 6.17 5.56 27.66 27.66 0 0 0 7.59 3.44 32.94 32.94 0 0 0 16.53.1 56.28 56.28 0 0 0 15.41-6.54A102.09 102.09 0 0 0 187 239.5a.49.49 0 0 1 .7.05 51.93 51.93 0 0 0 12.58 11.1 42.05 42.05 0 0 0 15.62 6 38.19 38.19 0 0 0 16.66-1.22 53 53 0 0 0 15-7.57.27.27 0 0 1 .3 0 57.29 57.29 0 0 0 7.15 3.2 45.84 45.84 0 0 0 7.53 2.14 27.3 27.3 0 0 0 7.81.45 15.71 15.71 0 0 0 7.35-2.51 15.79 15.79 0 0 1-7.34 2.66 27.33 27.33 0 0 1-7.87-.3 47 47 0 0 1-7.64-2 54.1 54.1 0 0 1-7.26-3.14h.3a53.39 53.39 0 0 1-15.16 7.83 38 38 0 0 1-17 1.37 42.9 42.9 0 0 1-16-6.09 52.61 52.61 0 0 1-12.73-11.3l.72.08a100.74 100.74 0 0 1-13.77 10 57.4 57.4 0 0 1-15.68 6.58 33.16 33.16 0 0 1-17-.21 28 28 0 0 1-7.75-3.61 25.65 25.65 0 0 1-6.29-5.79h.49a30 30 0 0 1-6.53 6.24 20.93 20.93 0 0 1-8.32 3.4 22 22 0 0 1-9-.38 26.45 26.45 0 0 1-8.17-3.58ZM115.78 293.27a34 34 0 0 0 9.21 3 28.2 28.2 0 0 0 9.61.07 26.49 26.49 0 0 0 4.64-1.25 27.24 27.24 0 0 0 4.27-2.18 28.7 28.7 0 0 0 7-6.55.39.39 0 0 1 .49-.1 32.93 32.93 0 0 0 9.55 3.51 30.43 30.43 0 0 0 10.16.38 29.1 29.1 0 0 0 9.65-3.1 36.75 36.75 0 0 0 8.22-6 .5.5 0 0 1 .71 0 23.51 23.51 0 0 0 18.87 8.95 30.74 30.74 0 0 0 10.59-2.24 48.52 48.52 0 0 0 9.65-5.12.33.33 0 0 1 .41 0 63.81 63.81 0 0 0 6.7 4.81 53 53 0 0 0 7.31 3.84 25.82 25.82 0 0 0 8 2.09 12.41 12.41 0 0 0 7.9-1.88 12.54 12.54 0 0 1-7.91 2.09 26.47 26.47 0 0 1-8.09-1.91 48.1 48.1 0 0 1-7.45-3.75 64.5 64.5 0 0 1-6.85-4.77h.41a49.13 49.13 0 0 1-9.72 5.34 31.43 31.43 0 0 1-10.88 2.35 24.45 24.45 0 0 1-19.69-9.21l.75.07a37.17 37.17 0 0 1-8.46 6.15 30 30 0 0 1-10 3.15 31.34 31.34 0 0 1-10.45-.43 32.53 32.53 0 0 1-9.78-3.72l.5-.09a29.19 29.19 0 0 1-7.23 6.61 26.59 26.59 0 0 1-4.41 2.18 25.85 25.85 0 0 1-4.75 1.21 28.7 28.7 0 0 1-9.74-.32 34 34 0 0 1-9.19-3.18ZM147.21 330.26a31.17 31.17 0 0 0 6.44.86 27.06 27.06 0 0 0 6.42-.55 18.74 18.74 0 0 0 5.93-2.36 17.13 17.13 0 0 0 4.62-4.32.43.43 0 0 1 .5-.14 29.13 29.13 0 0 0 5 1.42 26 26 0 0 0 5.13.47 18.92 18.92 0 0 0 5-.77 15.12 15.12 0 0 0 4.49-2.33.52.52 0 0 1 .64 0 16.45 16.45 0 0 0 4.53 2.67 16 16 0 0 0 5.15 1.17 16.75 16.75 0 0 0 5.27-.5 19.13 19.13 0 0 0 2.53-.82c.83-.33 1.62-.75 2.43-1.12a.4.4 0 0 1 .46.09 24.27 24.27 0 0 0 4.48 3.77 19.93 19.93 0 0 0 5.31 2.48 13.35 13.35 0 0 0 5.83.38l1.45-.3 1.38-.51a6.35 6.35 0 0 0 1.34-.64l1.31-.72a14.25 14.25 0 0 1-5.44 2.44 13.82 13.82 0 0 1-6-.16 20.49 20.49 0 0 1-5.52-2.43 25.22 25.22 0 0 1-4.73-3.79l.49.08c-.84.41-1.64.87-2.5 1.22a18.58 18.58 0 0 1-2.64.88 17.88 17.88 0 0 1-15.83-3.44h.64a15.68 15.68 0 0 1-4.81 2.47 20.08 20.08 0 0 1-5.32.78 27 27 0 0 1-5.31-.54 29.23 29.23 0 0 1-5.13-1.51l.51-.14a18 18 0 0 1-5 4.41 19.59 19.59 0 0 1-6.17 2.3 26.66 26.66 0 0 1-6.55.32 28 28 0 0 1-6.33-1.12ZM100.89 174.26a25.32 25.32 0 0 0 5.12-1.59 39 39 0 0 0 4.78-2.42 43.26 43.26 0 0 0 4.4-3.07c.72-.53 1.36-1.14 2-1.71s1.3-1.23 2-1.84a.23.23 0 0 1 .3 0 43.72 43.72 0 0 0 7.75 4.72 44.73 44.73 0 0 0 8.53 3.13 40.41 40.41 0 0 0 18 .62 44.41 44.41 0 0 0 16.52-7.1 68.77 68.77 0 0 0 13.44-12.18.51.51 0 0 1 .67-.07 102.38 102.38 0 0 0 16.09 9.77 80.44 80.44 0 0 0 17.69 6.38 48.93 48.93 0 0 0 18.67.89 39.57 39.57 0 0 0 9-2.7 40.47 40.47 0 0 0 8-4.89.16.16 0 0 1 .23 0 14.93 14.93 0 0 0 2.65 2.68 12.42 12.42 0 0 0 3.28 1.88 8.9 8.9 0 0 0 3.72.56 10.22 10.22 0 0 0 3.67-.95 10 10 0 0 1-3.66 1A8.9 8.9 0 0 1 260 167a12.85 12.85 0 0 1-3.37-1.84 15 15 0 0 1-2.76-2.69h.23a36.14 36.14 0 0 1-17.1 8 49.6 49.6 0 0 1-19-.67 81 81 0 0 1-17.91-6.39 102.62 102.62 0 0 1-16.3-9.81l.68-.07a68.35 68.35 0 0 1-13.67 12.3 45.18 45.18 0 0 1-16.91 7.15 40.47 40.47 0 0 1-18.31-.8 45.64 45.64 0 0 1-8.6-3.28 42.29 42.29 0 0 1-7.78-4.9h.31c-.67.61-1.33 1.23-2 1.81s-1.37 1.17-2.11 1.69a44.74 44.74 0 0 1-4.48 3 40.19 40.19 0 0 1-4.86 2.34 25.14 25.14 0 0 1-5.17 1.42Z"></path><path fill="#fda01f" d="M121.67 168.12a2.41 2.41 0 1 1-4.81 0c0-1.33 2.4-4.4 2.4-4.4s2.41 3.07 2.41 4.4ZM186.56 157.57a2.41 2.41 0 1 1-4.81 0c0-1.32 2.41-4.4 2.41-4.4s2.4 3.08 2.4 4.4ZM256.47 166.76a2.41 2.41 0 1 1-4.81 0c0-1.32 2.41-4.4 2.41-4.4s2.4 3.08 2.4 4.4ZM121 205.75a2.41 2.41 0 1 1-4.81 0c0-1.33 2.41-4.41 2.41-4.41s2.4 3.08 2.4 4.41ZM129.86 251.46a2.41 2.41 0 0 1-4.82 0c0-1.33 2.41-4.4 2.41-4.4s2.41 3.07 2.41 4.4ZM189.63 244.31a2.41 2.41 0 1 1-4.81 0c0-1.33 2.4-4.41 2.4-4.41s2.41 3.1 2.41 4.41ZM250.16 252.41a2.41 2.41 0 0 1-4.81 0c0-1.33 2.4-4.41 2.4-4.41s2.41 3.08 2.41 4.41ZM231 287.39a2.41 2.41 0 1 1-4.81 0c0-1.33 2.4-4.4 2.4-4.4s2.41 3.07 2.41 4.4ZM191.32 285.78a2.41 2.41 0 0 1-4.81 0c0-1.33 2.4-4.41 2.4-4.41s2.41 3.08 2.41 4.41ZM153.18 291.06a2.41 2.41 0 0 1-4.81 0c0-1.33 2.4-4.41 2.4-4.41s2.41 3.08 2.41 4.41ZM174 328.17a2.4 2.4 0 1 1-4.76.67c-.19-1.32 1.77-4.7 1.77-4.7s2.85 2.72 2.99 4.03ZM193.69 327.21a2.41 2.41 0 0 1-4.81.19c0-1.33 2.23-4.5 2.23-4.5s2.52 2.98 2.58 4.31ZM213.45 328.88a2.41 2.41 0 0 1-4.8-.43c.12-1.32 2.8-4.17 2.8-4.17s2.12 3.28 2 4.6ZM188.58 203.18a2.41 2.41 0 0 1-4.82 0c0-1.33 2.41-4.41 2.41-4.41s2.41 3.08 2.41 4.41ZM258.41 209.51a2.41 2.41 0 0 1-4.81 0c0-1.33 2.41-4.41 2.41-4.41s2.4 3.08 2.4 4.41Z"></path><path fill="#ffcd52" d="M378.26 216.14h-30.18v-13a74.82 74.82 0 0 0 30.18 0Z"></path><path fill="#f46534" d="M351.41 203.76a36.61 36.61 0 0 1 0 12.06 31.47 31.47 0 0 1-.5-6 32.3 32.3 0 0 1 .5-6.06ZM354.53 216.14a31.77 31.77 0 0 1-.5-6 30.86 30.86 0 0 1 .5-6 36 36 0 0 1 0 11.95ZM357.64 216.14a34.24 34.24 0 0 1 0-11.66 34.24 34.24 0 0 1 0 11.66ZM360.43 216.14a33.31 33.31 0 0 1 0-11.5 33.31 33.31 0 0 1 0 11.5ZM363.17 216.14a30 30 0 0 1-.5-5.72 29.2 29.2 0 0 1 .5-5.73 28.46 28.46 0 0 1 .5 5.73 29.17 29.17 0 0 1-.5 5.72ZM366.09 216.14a33.37 33.37 0 0 1 0-11.51 33.37 33.37 0 0 1 0 11.51ZM369.16 216.14a34.41 34.41 0 0 1 0-11.69 34.41 34.41 0 0 1 0 11.69ZM372.36 216.14a32.08 32.08 0 0 1-.5-6 31.33 31.33 0 0 1 .5-6 32.15 32.15 0 0 1 .5 6 33 33 0 0 1-.5 6ZM375.65 203.64a39.31 39.31 0 0 1 0 12.5 39.31 39.31 0 0 1 0-12.5Z"></path><path fill="#f46534" d="M348.08 209.64c2.52-.2 5-.3 7.55-.38s5-.1 7.54-.12 5 0 7.55.12l3.77.14c1.25.08 2.51.13 3.77.24-1.26.12-2.52.17-3.77.25l-3.77.14c-2.52.09-5 .1-7.55.11s-5 0-7.54-.11-5.03-.18-7.55-.39Z"></path><path fill="#e5e5e5" d="M362.4 180.6q-2.68-56.08-4.72-112.19-.8-22.08-1.5-44.13c.68 0 1.36-.05 2.06-.05 32.87 0 59.52 30 59.52 67.08 0 18.73-6.82 35.65-17.79 47.82-16.42 18.7-18.34 36.36-18.34 36.36-5.92 3.57-12.85 4.88-19.23 5.11Z"></path><path fill="#ff5061" d="M358.24 24.23h-2.06q.7 22.07 1.5 44.13 2 56.11 4.72 112.19a70.48 70.48 0 0 1-20.26-2.37c-4.76-19.7-21.14-34.5-21.14-34.5-13.63-12.29-22.36-31.18-22.36-52.37 0-36.26 25.55-65.82 57.48-67h.67c.52-.07.98-.08 1.45-.08Z"></path><path fill="#e5e5e5" d="M353.28 180.28c.53-6.68-1.86-16.12-4.69-24.56A86.86 86.86 0 0 0 333 128.23c-23-27.91-18-70.83-15.27-86.09C306 54.39 298.7 71.89 298.7 91.31c0 21.19 8.73 40.08 22.36 52.37s16.35 14.8 21.11 34.55a67.84 67.84 0 0 0 11.11 2.05Z"></path><path fill="#ff5061" d="M372 179.34c-1.72-6.6.12-17.25 2.58-26.73a86.9 86.9 0 0 1 13.57-28.53c19.08-26.8 14.16-64.35 10.27-82.22 11.86 12.25 19.31 29.87 19.31 49.45 0 18.73-6.82 35.65-17.79 47.82-16.42 18.7-18.34 36.36-18.34 36.36a34.43 34.43 0 0 1-9.6 3.85Z"></path><path fill="#686868" d="M299.3 81.84a9.33 9.33 0 0 0 4.15 2.25 8.36 8.36 0 0 0 4.65-.18 12.64 12.64 0 0 0 4.06-2.36c.57-.55 1.14-1.09 1.69-1.66l1.53-1.82a.27.27 0 0 1 .39 0 26.67 26.67 0 0 0 9.63 6.49 25.43 25.43 0 0 0 11.45 1.65 30.24 30.24 0 0 0 5.71-1.14 36.26 36.26 0 0 0 5.4-2.22 49 49 0 0 0 9.68-6.6.49.49 0 0 1 .65 0 44.87 44.87 0 0 0 9.87 6.36A38 38 0 0 0 379.42 86a30.25 30.25 0 0 0 11.68-.63 32.89 32.89 0 0 0 10.63-5 .26.26 0 0 1 .3 0 20.46 20.46 0 0 0 3.49 2.1 18.09 18.09 0 0 0 3.85 1.33 12.1 12.1 0 0 0 4.07.12 10.06 10.06 0 0 0 3.81-1.48 10.27 10.27 0 0 1-3.78 1.63 12.3 12.3 0 0 1-4.15 0 17.87 17.87 0 0 1-4-1.25 21.07 21.07 0 0 1-3.64-2h.3a33.63 33.63 0 0 1-10.74 5.28 30 30 0 0 1-12 .8 38.54 38.54 0 0 1-11.51-3.44A45.63 45.63 0 0 1 357.65 77h.66a49.2 49.2 0 0 1-9.9 6.69 36.86 36.86 0 0 1-5.57 2.25 30.92 30.92 0 0 1-5.9 1.14 25.27 25.27 0 0 1-11.79-1.84 27.2 27.2 0 0 1-9.77-6.82h.42l-1.59 1.83c-.57.57-1.18 1.11-1.77 1.65a13.15 13.15 0 0 1-4.25 2.32 8.67 8.67 0 0 1-4.79.06 9.41 9.41 0 0 1-4.1-2.44ZM301.2 110.6a16.92 16.92 0 0 0 5.19 2.08 13.22 13.22 0 0 0 5.53.09 12.4 12.4 0 0 0 5-2.2l.57-.39c.18-.14.35-.3.52-.45l1-.93c.65-.66 1.22-1.39 1.84-2.08a.31.31 0 0 1 .44 0 16.86 16.86 0 0 0 8.71 5.58 20.65 20.65 0 0 0 10.3 0 35.38 35.38 0 0 0 9.62-4.1 63.74 63.74 0 0 0 8.52-6.21.49.49 0 0 1 .7.06 32.27 32.27 0 0 0 7.84 6.93 26.07 26.07 0 0 0 9.74 3.76 23.78 23.78 0 0 0 10.4-.74 32.92 32.92 0 0 0 9.43-4.7.3.3 0 0 1 .3 0 37.32 37.32 0 0 0 4.46 2 27.83 27.83 0 0 0 4.71 1.36 17.1 17.1 0 0 0 4.89.3 10.46 10.46 0 0 0 4.62-1.53 10.54 10.54 0 0 1-4.6 1.71 17.18 17.18 0 0 1-5-.17 28.31 28.31 0 0 1-4.81-1.24 32.36 32.36 0 0 1-4.58-2h.3a34 34 0 0 1-9.55 5 23.82 23.82 0 0 1-10.74.89 27.17 27.17 0 0 1-10.1-3.84 33.11 33.11 0 0 1-8.14-7.12l.71.08a63 63 0 0 1-8.67 6.26 36.1 36.1 0 0 1-9.9 4.15 21.09 21.09 0 0 1-10.73-.15 17.58 17.58 0 0 1-8.86-6h.48c-.64.7-1.24 1.44-1.92 2.11l-1.08.94c-.18.15-.35.32-.54.46l-.6.39a12.81 12.81 0 0 1-5.26 2.13 13.63 13.63 0 0 1-5.65-.24 16.83 16.83 0 0 1-5.09-2.19ZM313.81 135.94a22.26 22.26 0 0 0 5.79 1.81 17.58 17.58 0 0 0 6 0 17.11 17.11 0 0 0 2.89-.77 16.68 16.68 0 0 0 2.64-1.4 15.35 15.35 0 0 0 2.34-1.85 9.6 9.6 0 0 0 1-1.09l1-1.13a.4.4 0 0 1 .5-.09 21 21 0 0 0 5.95 2.17 18.39 18.39 0 0 0 6.32.2 17.13 17.13 0 0 0 6-1.94 19.2 19.2 0 0 0 2.69-1.68c.86-.62 1.62-1.38 2.44-2a.52.52 0 0 1 .73.08 14.49 14.49 0 0 0 5.19 4.1 14.84 14.84 0 0 0 6.5 1.41l1.68-.12a13.44 13.44 0 0 0 1.66-.3 22 22 0 0 0 3.25-1c1.06-.41 2.07-.94 3.11-1.41l2.94-1.76a.35.35 0 0 1 .4 0 40.46 40.46 0 0 0 4.18 3 33.23 33.23 0 0 0 4.56 2.43 16.2 16.2 0 0 0 5 1.33 7.83 7.83 0 0 0 4.95-1.13 7.78 7.78 0 0 1-5 1.36 16.32 16.32 0 0 1-5.1-1.17 29.94 29.94 0 0 1-4.71-2.34 39.58 39.58 0 0 1-4.32-3h.41l-3 1.87c-1.05.51-2.08 1.07-3.16 1.52a22.2 22.2 0 0 1-3.37 1c-.59.11-1.15.28-1.74.33l-1.78.13a15.62 15.62 0 0 1-6.92-1.45 15.34 15.34 0 0 1-5.59-4.38l.75.07c-.84.71-1.65 1.48-2.55 2.12a20.45 20.45 0 0 1-2.83 1.74 18.19 18.19 0 0 1-6.31 2 19.07 19.07 0 0 1-6.61-.27 20.39 20.39 0 0 1-6.18-2.37l.5-.09-1 1.16a9.44 9.44 0 0 1-1.09 1.1 15.12 15.12 0 0 1-2.48 1.88 17.6 17.6 0 0 1-2.78 1.39 17.38 17.38 0 0 1-3 .73 18 18 0 0 1-6.13-.22 20.52 20.52 0 0 1-5.72-1.97ZM333.54 159.17a20.65 20.65 0 0 0 4 .49 18 18 0 0 0 4-.39 11.69 11.69 0 0 0 3.67-1.5 10.62 10.62 0 0 0 2.85-2.7.44.44 0 0 1 .5-.13 17.55 17.55 0 0 0 3.08.87 16.39 16.39 0 0 0 3.19.29 11.62 11.62 0 0 0 3.12-.49 9.15 9.15 0 0 0 2.75-1.44.54.54 0 0 1 .65 0 10.43 10.43 0 0 0 9.22 2.07 14.11 14.11 0 0 0 3.08-1.19.43.43 0 0 1 .47.09 15 15 0 0 0 2.77 2.37 12.6 12.6 0 0 0 3.29 1.57 8.4 8.4 0 0 0 3.63.27 9.37 9.37 0 0 0 3.45-1.31 8.88 8.88 0 0 1-3.41 1.58 8.71 8.71 0 0 1-3.8-.06 12.55 12.55 0 0 1-3.51-1.51 15.92 15.92 0 0 1-3-2.38l.49.08c-.53.26-1 .56-1.58.78a11.42 11.42 0 0 1-1.68.56 10.76 10.76 0 0 1-3.53.37 11.5 11.5 0 0 1-6.58-2.55h.65a10 10 0 0 1-3.09 1.57 12.57 12.57 0 0 1-3.39.49 16.62 16.62 0 0 1-3.37-.35 17.2 17.2 0 0 1-3.24-1l.5-.13a11.49 11.49 0 0 1-3.16 2.78 12.15 12.15 0 0 1-3.93 1.43 16.83 16.83 0 0 1-4.13.17 17.74 17.74 0 0 1-3.96-.7ZM304.46 61.22a15.52 15.52 0 0 0 3.2-1 25.5 25.5 0 0 0 3-1.53 26.53 26.53 0 0 0 2.74-1.94 31.09 31.09 0 0 0 2.5-2.23.22.22 0 0 1 .29 0 29.17 29.17 0 0 0 10.19 4.87 25.47 25.47 0 0 0 11.22.35 27.89 27.89 0 0 0 10.33-4.42 43.07 43.07 0 0 0 8.39-7.63.51.51 0 0 1 .67-.07 64.38 64.38 0 0 0 10.07 6.12 50.31 50.31 0 0 0 11.06 4 30.6 30.6 0 0 0 11.67.6 24.55 24.55 0 0 0 5.62-1.67 25.12 25.12 0 0 0 5-3 .18.18 0 0 1 .24 0 8.71 8.71 0 0 0 3.68 2.86 5.71 5.71 0 0 0 2.32.37 6.24 6.24 0 0 0 2.35-.6 6.43 6.43 0 0 1-2.3.68 5.41 5.41 0 0 1-2.39-.3 7.63 7.63 0 0 1-2.14-1.15 9.33 9.33 0 0 1-1.75-1.69h.24a25.67 25.67 0 0 1-5 3.25 24.89 24.89 0 0 1-5.72 1.81 31.26 31.26 0 0 1-12-.38 51.79 51.79 0 0 1-11.29-4 65 65 0 0 1-10.27-6.17l.68-.07a43 43 0 0 1-8.62 7.75 28.5 28.5 0 0 1-10.69 4.5 25.24 25.24 0 0 1-11.54-.53 29.06 29.06 0 0 1-5.41-2.08 26.17 26.17 0 0 1-4.9-3.11h.31a31.71 31.71 0 0 1-2.6 2.19 26.75 26.75 0 0 1-2.84 1.87 19.65 19.65 0 0 1-6.31 2.35Z"></path><path fill="#0850ec" d="M317.51 57.37a1.52 1.52 0 0 1-3 0c0-.84 1.51-2.77 1.51-2.77s1.49 1.93 1.49 2.77ZM358.25 50.75a1.51 1.51 0 0 1-3 0c0-.84 1.51-2.77 1.51-2.77s1.49 1.93 1.49 2.77ZM402.14 56.52a1.51 1.51 0 1 1-3 0c0-.84 1.51-2.77 1.51-2.77s1.49 1.93 1.49 2.77ZM317.11 81a1.52 1.52 0 0 1-3 0c0-.83 1.52-2.76 1.52-2.76s1.48 1.92 1.48 2.76ZM322.65 109.69a1.52 1.52 0 1 1-3 0c0-.83 1.52-2.76 1.52-2.76s1.48 1.93 1.48 2.76ZM360.18 105.2a1.52 1.52 0 0 1-3 0c0-.83 1.52-2.76 1.52-2.76s1.48 1.93 1.48 2.76ZM398.18 110.29a1.51 1.51 0 1 1-3 0c0-.84 1.51-2.77 1.51-2.77s1.49 1.93 1.49 2.77ZM386.13 132.25a1.51 1.51 0 0 1-3 0c0-.83 1.51-2.76 1.51-2.76s1.49 1.93 1.49 2.76ZM361.24 131.24a1.51 1.51 0 0 1-3 0c0-.84 1.51-2.77 1.51-2.77s1.49 1.93 1.49 2.77ZM337.29 134.56a1.51 1.51 0 0 1-3 0c0-.84 1.51-2.77 1.51-2.77s1.49 1.93 1.49 2.77ZM350.39 157.86a1.51 1.51 0 0 1-3 .42c-.12-.83 1.11-2.95 1.11-2.95s1.77 1.67 1.89 2.53ZM362.72 157.25a1.5 1.5 0 0 1-1.45 1.57 1.52 1.52 0 0 1-1.57-1.45c0-.83 1.41-2.82 1.41-2.82s1.58 1.87 1.61 2.7ZM375.13 158.3a1.51 1.51 0 0 1-3-.27c.08-.83 1.76-2.62 1.76-2.62s1.32 2.06 1.24 2.89ZM359.51 79.38a1.51 1.51 0 1 1-3 0c0-.83 1.51-2.77 1.51-2.77s1.49 1.94 1.49 2.77ZM403.36 83.35a1.51 1.51 0 1 1-3 0c0-.83 1.51-2.76 1.51-2.76s1.49 1.93 1.49 2.76Z"></path><path fill="#c1e3f7" d="M404.09 300.19c0-2.38-.64-5.42-3.92-6.32-1.06-2.49-4.69-4.33-9-4.33v-.7c0-6.24-7.19-11.3-16.06-11.3-.58 0-1.15 0-1.71.07v-.07c0-7.6-7.35-13.76-16.41-13.76s-16.41 6.16-16.41 13.76v.38a23.09 23.09 0 0 0-7.06-1.08c-10.25 0-18.56 6.48-18.56 14.47 0 6.37 5.29 11.78 12.63 13.71l1.05.25a23.47 23.47 0 0 0 4.88.51c1.69 0 61.47-.51 61.47-.51a12.36 12.36 0 0 0 6.69-1.91c1.32-.85 2.41-1.94 2.41-3.17ZM125 95.71c0-2.38-.63-5.42-3.92-6.32-1.06-2.49-4.69-4.33-9-4.33v-.71c0-6.23-7.19-11.29-16-11.29-.58 0-1.16 0-1.72.06v-.06c0-7.6-7.34-13.77-16.41-13.77S61.5 65.46 61.5 73.06v.38a23.1 23.1 0 0 0-7.06-1.09c-10.25 0-18.56 6.48-18.56 14.47 0 6.38 5.29 11.78 12.63 13.71l1 .25a23.54 23.54 0 0 0 4.88.51c1.69 0 61.47-.51 61.47-.51a12.25 12.25 0 0 0 6.69-1.91c1.37-.87 2.45-1.93 2.45-3.16ZM487.16 36.41c0-2.38-.64-5.41-3.92-6.32-1.06-2.49-4.69-4.33-9-4.33v-.71c0-6.24-7.19-11.3-16.06-11.3-.58 0-1.15 0-1.71.07v-.07C456.44 6.16 449.09 0 440 0s-16.41 6.16-16.41 13.76v.38a23.4 23.4 0 0 0-7.06-1.08c-10.25 0-18.56 6.48-18.56 14.47 0 6.37 5.29 11.78 12.63 13.71l1.05.25a23.47 23.47 0 0 0 4.88.51c1.69 0 61.47-.51 61.47-.51a12.27 12.27 0 0 0 6.69-1.91c1.31-.85 2.47-1.94 2.47-3.17Z"></path><path fill="#439916" d="M466.11 211.53a47.93 47.93 0 0 1-6.11 1.06q-3.06.36-6.13.5t-6.15.07a49.65 49.65 0 0 1-6.18-.5 47.62 47.62 0 0 1 6.11-1.06q3.06-.36 6.13-.5c2.05-.1 4.1-.11 6.15-.06a47.93 47.93 0 0 1 6.18.49Z"></path><path fill="#439916" d="M454.39 224.38a47.93 47.93 0 0 1-1.06-6.11q-.36-3.06-.51-6.13t-.06-6.15a49.8 49.8 0 0 1 .5-6.18 47.93 47.93 0 0 1 1.06 6.11q.36 3.06.5 6.13c.1 2 .11 4.1.06 6.15a47.79 47.79 0 0 1-.49 6.18ZM429.1 216.46a36.27 36.27 0 0 1 1.09 5.29c.26 1.77.44 3.54.54 5.32s.14 3.56.1 5.35a36.54 36.54 0 0 1-.46 5.39 36.67 36.67 0 0 1-1.09-5.3c-.25-1.77-.44-3.54-.54-5.32s-.14-3.56-.1-5.35a36.29 36.29 0 0 1 .46-5.38Z"></path><path fill="#439916" d="M440.41 226.49a37.67 37.67 0 0 1-5.29 1.1c-1.77.25-3.54.43-5.32.54s-3.57.14-5.35.1a36.54 36.54 0 0 1-5.39-.46 36.58 36.58 0 0 1 5.29-1.1c1.77-.25 3.55-.44 5.33-.54s3.56-.13 5.35-.09a37.67 37.67 0 0 1 5.38.45ZM139.3 19.91a47.62 47.62 0 0 1-6.11 1.09q-3.06.36-6.13.5c-2 .1-4.1.11-6.15.06a46.23 46.23 0 0 1-6.18-.5 49.75 49.75 0 0 1 6.11-1.06c2-.23 4.08-.41 6.13-.5s4.1-.11 6.15-.06a49.49 49.49 0 0 1 6.18.47Z"></path><path fill="#439916" d="M127.58 32.76a47.93 47.93 0 0 1-1.06-6.11q-.36-3.06-.5-6.13c-.1-2.05-.11-4.1-.06-6.15a47.65 47.65 0 0 1 .49-6.18 47.81 47.81 0 0 1 1.07 6.1c.23 2.05.41 4.09.5 6.14s.11 4.1 0 6.15a47.93 47.93 0 0 1-.44 6.18ZM102.29 24.83a38 38 0 0 1 1.1 5.29c.25 1.77.43 3.55.54 5.33s.14 3.56.1 5.35a36.29 36.29 0 0 1-.46 5.38 36.3 36.3 0 0 1-1.1-5.29c-.25-1.77-.44-3.54-.54-5.32s-.13-3.57-.09-5.35a37.93 37.93 0 0 1 .45-5.39Z"></path><path fill="#439916" d="M113.61 34.87a36.67 36.67 0 0 1-5.3 1.09c-1.77.26-3.54.44-5.32.54s-3.56.14-5.35.1a36.29 36.29 0 0 1-5.38-.46 36.27 36.27 0 0 1 5.29-1.09c1.77-.25 3.54-.44 5.32-.54s3.56-.14 5.35-.1a36.54 36.54 0 0 1 5.39.46ZM99.14 384.62a49.72 49.72 0 0 1-6.14 1.05c-2 .24-4.08.42-6.13.51s-4.1.11-6.15.06a47.81 47.81 0 0 1-6.18-.5 47.93 47.93 0 0 1 6.11-1.06q3.06-.36 6.13-.5c2-.1 4.1-.11 6.15-.06a47.81 47.81 0 0 1 6.21.5Z"></path><path fill="#439916" d="M87.42 397.46a47.78 47.78 0 0 1-1.06-6.1q-.36-3.06-.5-6.14t-.07-6.15a49.8 49.8 0 0 1 .5-6.18 47.93 47.93 0 0 1 1.06 6.11c.24 2 .42 4.09.5 6.13s.12 4.1.06 6.16a47.63 47.63 0 0 1-.49 6.17ZM62.13 389.54a37.67 37.67 0 0 1 1.1 5.29c.25 1.77.43 3.54.54 5.32s.14 3.57.1 5.35a36.54 36.54 0 0 1-.46 5.39 36.58 36.58 0 0 1-1.1-5.29c-.25-1.77-.44-3.55-.54-5.33s-.14-3.56-.1-5.35a36.29 36.29 0 0 1 .46-5.38Z"></path><path fill="#439916" d="M73.44 399.57a36.3 36.3 0 0 1-5.29 1.1c-1.77.25-3.54.44-5.32.54s-3.56.14-5.35.1a36.54 36.54 0 0 1-5.39-.46 37.81 37.81 0 0 1 5.3-1.1c1.77-.25 3.54-.43 5.32-.54s3.56-.13 5.35-.09a37.67 37.67 0 0 1 5.38.45Z"></path><path fill="#a0c2ea" d="M0 205.63a54.35 54.35 0 0 1 6.5-11.18 44.34 44.34 0 0 1 9.3-9 38.62 38.62 0 0 1 11.68-5.73 114.84 114.84 0 0 1 12.7-2.7 117 117 0 0 0 12.58-2.77 107.18 107.18 0 0 0 12.13-4.29 110.73 110.73 0 0 0 11.58-5.67c3.77-2.07 7.41-4.38 11-6.8a112.73 112.73 0 0 1-22.27 13.13A103 103 0 0 1 40.35 178a114.81 114.81 0 0 0-12.6 2.59 39.91 39.91 0 0 0-11.5 5.41C9.16 190.86 3.79 197.91 0 205.63Z"></path><path fill="#c1e3f7" d="M289.55 281.38a54.1 54.1 0 0 1 5.32-11.79 43.61 43.61 0 0 1 8.31-10 38.68 38.68 0 0 1 11-6.91 114.44 114.44 0 0 1 12.34-4 115.2 115.2 0 0 0 12.23-4.05 110.29 110.29 0 0 0 11.63-5.52 111.57 111.57 0 0 0 10.93-6.84c3.53-2.45 6.91-5.12 10.21-7.9a112.42 112.42 0 0 1-20.77 15.41 102.8 102.8 0 0 1-23.95 9.86 113.77 113.77 0 0 0-12.28 3.88 40.17 40.17 0 0 0-10.87 6.64c-6.51 5.58-11.13 13.16-14.1 21.22ZM173.49 87.89q5.4-1 10.7-2.39c3.53-1 7-2.08 10.48-3.2a61.84 61.84 0 0 0 10.12-4.07 21.53 21.53 0 0 0 4.39-3.11 18 18 0 0 0 3.32-4.21 24 24 0 0 0 2.16-4.91 12.42 12.42 0 0 0 .56-5.22 6 6 0 0 0-2.59-4.25 10.36 10.36 0 0 0-4.92-1.64 11.66 11.66 0 0 0-5.18.71 6.38 6.38 0 0 0-2.17 1.34 4.25 4.25 0 0 0-1.29 2.06 8.4 8.4 0 0 0 .54 5.06 16.06 16.06 0 0 0 2.66 4.57c2.3 2.71 5.64 4.34 9 5.49a89.26 89.26 0 0 0 10.58 2.6 77.21 77.21 0 0 0 21.7 1.54 75.07 75.07 0 0 0 40-16 76.59 76.59 0 0 1-18.69 11.41 70.94 70.94 0 0 1-10.43 3.49A67.58 67.58 0 0 1 243.65 79a75.81 75.81 0 0 1-21.93-1.4A93.41 93.41 0 0 1 211 75c-3.47-1.17-7-2.84-9.49-5.75a16.84 16.84 0 0 1-2.81-4.87 9.29 9.29 0 0 1-.54-5.67 5.16 5.16 0 0 1 1.56-2.51 7.54 7.54 0 0 1 2.47-1.52 12.42 12.42 0 0 1 5.59-.74 11 11 0 0 1 5.36 1.82 7.16 7.16 0 0 1 2 2.11 7.32 7.32 0 0 1 .94 2.74 13 13 0 0 1-.61 5.59 25 25 0 0 1-2.3 5.07 18.73 18.73 0 0 1-3.51 4.33 22 22 0 0 1-4.56 3.16 61.91 61.91 0 0 1-10.27 4c-3.51 1-7 2.1-10.57 3s-7.15 1.57-10.77 2.13Z"></path></g></g></svg>